<svg version="1.1" id="Layer_1" xmlns="http://www.w3.org/2000/svg" xmlns:xlink="http://www.w3.org/1999/xlink" x="0px" y="0px"
	 width="100%" viewBox="0 0 1600 198" enable-background="new 0 0 1600 198" xml:space="preserve">
<path fill="#AFDDFF" opacity="1.000000" stroke="none" 
	d="
M1600.620850,121.711784 
	C1601.000000,146.660522 1600.960449,171.321198 1601.061646,195.981293 
	C1601.071777,198.434494 1600.570312,199.500351 1598.016479,199.018204 
	C1597.372925,198.896729 1596.687012,199.000000 1596.020508,199.000000 
	C1065.986084,199.000000 535.951538,198.992462 5.917130,199.127396 
	C1.467114,199.128540 0.862820,197.937531 0.898027,193.918686 
	C1.105291,170.259750 1.000000,146.598068 1.000000,122.468658 
	C1.981201,121.130791 3.142566,120.700012 4.904029,120.579132 
	C17.423204,120.412376 29.479771,120.992363 41.967438,120.138260 
	C43.295551,119.797989 44.198772,119.694283 45.548950,119.582001 
	C50.901291,119.501144 55.818798,119.958321 61.130379,119.167580 
	C62.101215,118.920715 62.662216,118.817307 63.649399,118.695770 
	C67.653770,118.474487 71.259193,118.967934 75.224945,118.188606 
	C76.156303,117.952606 76.694534,117.852966 77.641975,117.732880 
	C80.963882,117.518295 83.903130,117.921989 87.186310,117.243805 
	C87.823013,117.069603 88.079453,117.007751 88.724792,116.877953 
	C91.683678,116.496170 94.295387,116.927696 97.221085,116.266365 
	C97.838867,116.095398 98.087677,116.034821 98.713623,115.907387 
	C101.331139,115.554718 103.609634,115.886421 106.194603,115.312309 
	C106.790497,115.141159 107.030884,115.081566 107.635727,114.956024 
	C110.168388,114.615662 112.366638,114.892136 114.875092,114.424744 
	C115.453079,114.253426 115.686264,114.191490 116.273499,114.054214 
	C118.746742,113.597374 120.932213,113.951508 123.380226,113.300026 
	C123.956444,113.141396 124.188652,113.084190 124.773643,112.962891 
	C126.760529,112.670105 128.436646,112.864059 130.387497,112.309265 
	C130.955307,112.152214 131.183929,112.095543 131.759521,111.975349 
	C133.713028,111.702393 135.351471,111.844658 137.272156,111.368225 
	C137.823456,111.207207 138.045837,111.150627 138.605515,111.030373 
	C140.501877,110.754036 142.091934,110.914764 143.961517,110.479614 
	C144.498062,110.323250 144.713669,110.263802 145.256561,110.130051 
	C147.106171,109.776237 148.683624,109.910370 150.499329,109.347061 
	C151.032257,109.195335 151.246826,109.139862 151.787537,109.022095 
	C153.409027,108.787422 154.731430,108.845779 156.317749,108.407471 
	C156.837952,108.256973 157.047211,108.202164 157.574005,108.084763 
	C159.148499,107.838661 160.435379,107.941933 161.981964,107.537796 
	C162.488235,107.389580 162.691208,107.330940 163.202789,107.197906 
	C164.954712,106.839073 166.452637,107.003136 168.184616,106.495209 
	C168.694183,106.337372 168.899567,106.275696 169.419189,106.137245 
	C170.997543,105.811317 172.324234,105.818024 173.780457,104.982094 
	C175.537430,104.026665 177.126892,103.801743 179.098083,103.751556 
	C180.754471,103.748825 182.074341,103.882957 183.698303,103.567078 
	C184.217758,103.434990 184.423660,103.376747 184.940918,103.244423 
	C186.486496,102.922951 187.766769,102.979103 189.283264,102.504059 
	C189.789093,102.339523 189.993347,102.275452 190.510834,102.131676 
	C192.103668,101.815315 193.419724,101.690056 194.802505,100.666878 
	C197.640457,99.440239 200.320618,99.032600 203.392242,98.676697 
	C205.245590,98.611710 206.764572,98.808167 208.443848,97.730759 
	C216.071854,95.117599 223.644379,93.854683 231.082611,92.052010 
	C296.965881,76.085045 361.831207,56.247040 427.736237,40.365196 
	C430.324738,39.741413 432.877960,38.949558 435.937439,38.667290 
	C437.807556,38.533546 439.344543,38.912457 441.067200,37.926945 
	C442.517548,37.154995 443.724579,36.865799 445.345825,36.717770 
	C447.121216,36.586300 448.590912,36.897736 450.209290,35.892250 
	C452.760040,34.606636 455.144012,34.045128 457.966827,33.748009 
	C459.720581,33.698517 461.120148,33.831333 462.834961,33.483280 
	C463.383270,33.328609 463.603119,33.269871 464.154663,33.134781 
	C465.795502,32.808441 467.169830,32.783974 468.607605,31.769159 
	C471.340729,30.514624 473.945648,30.158623 476.894348,29.760193 
	C478.584717,29.710766 479.931000,29.864166 481.585693,29.577486 
	C482.109161,29.453606 482.315643,29.396336 482.833191,29.265789 
	C484.369110,28.941158 485.640045,29.007326 487.148132,28.558229 
	C487.646484,28.399200 487.846985,28.336910 488.354248,28.198456 
	C489.690033,27.923227 490.749512,27.920635 492.066467,27.548817 
	C492.567444,27.395998 492.768005,27.335638 493.273285,27.199511 
	C494.792236,26.891912 496.048462,26.914120 497.529999,26.422768 
	C498.023102,26.270046 498.222076,26.214260 498.724792,26.096992 
	C500.242706,25.859100 501.487183,25.975239 502.988770,25.565384 
	C503.496002,25.414600 503.700928,25.354210 504.220764,25.217127 
	C505.604279,24.934164 506.704224,24.937031 508.070312,24.561642 
	C508.583282,24.404541 508.787567,24.342192 509.300598,24.202019 
	C510.825745,23.891253 512.085083,23.913836 513.567017,23.412361 
	C514.060547,23.259073 514.259888,23.203428 514.763855,23.086773 
	C516.283264,22.853331 517.527710,22.959179 519.020935,22.547503 
	C519.512451,22.400352 519.709473,22.341961 520.206543,22.209787 
	C521.910095,21.852470 523.365784,22.017439 525.051880,21.550886 
	C525.541809,21.401407 525.738464,21.342211 526.234802,21.208736 
	C527.939819,20.850809 529.398315,21.018486 531.086670,20.540207 
	C531.580627,20.388376 531.779236,20.328451 532.281494,20.193966 
	C534.015076,19.838926 535.499878,20.002247 537.215393,19.488926 
	C537.722046,19.331495 537.926392,19.270273 538.443848,19.134602 
	C540.234924,18.792074 541.766785,18.919424 543.530701,18.356236 
	C544.055847,18.204485 544.268005,18.148989 544.804199,18.031700 
	C546.644104,17.767618 548.191528,17.931410 550.009583,17.480541 
	C550.537354,17.325171 550.749756,17.265726 551.285645,17.132153 
	C553.122620,16.779894 554.691284,16.915554 556.499023,16.352089 
	C557.034546,16.199493 557.250732,16.143574 557.796753,16.025154 
	C559.668762,15.758608 561.243591,15.921189 563.092651,15.448887 
	C563.632141,15.287282 563.849854,15.226317 564.399780,15.090761 
	C566.516052,14.690929 568.363892,14.942846 570.455383,14.322815 
	C571.007385,14.169869 571.230042,14.114041 571.791748,13.995417 
	C573.940613,13.698572 575.781067,13.918001 577.910400,13.463534 
	C578.459290,13.303521 578.680481,13.243695 579.238037,13.109419 
	C581.605042,12.671726 583.689148,12.972693 586.044922,12.436542 
	C586.600098,12.270486 586.824646,12.208705 587.392395,12.071521 
	C589.582642,11.657971 591.502808,11.936297 593.665771,11.232551 
	C594.249329,11.073103 594.485901,11.016157 595.084595,10.896635 
	C597.639221,10.542441 599.884094,10.948887 602.413818,10.237097 
	C603.019104,10.076264 603.263611,10.018319 603.880737,9.895605 
	C606.493652,9.529070 608.785217,9.940444 611.370483,9.240826 
	C611.984131,9.076646 612.231934,9.017571 612.856934,8.892753 
	C615.496643,8.518294 617.814453,8.953955 620.424194,8.215615 
	C621.047302,8.051167 621.299011,7.992162 621.934265,7.867670 
	C624.882568,7.474458 627.502136,7.986567 630.422607,7.191104 
	C631.059082,7.024431 631.316284,6.964859 631.965576,6.839799 
	C635.244385,6.434112 638.184570,7.011426 641.435974,6.163319 
	C642.348450,5.935747 642.877747,5.839906 643.814331,5.722928 
	C647.156555,5.484469 650.129333,5.990240 653.437622,5.149291 
	C654.365906,4.918258 654.904602,4.821295 655.858826,4.706100 
	C659.822266,4.455284 663.403198,5.010040 667.338013,4.152996 
	C668.012573,3.977513 668.285278,3.915139 668.973999,3.788324 
	C673.575378,3.348190 677.804077,4.079403 682.383057,3.118809 
	C683.353271,2.877188 683.916992,2.779434 684.916626,2.682654 
	C690.227173,2.460834 695.119385,2.888538 700.413574,2.256985 
	C701.699585,2.020503 702.571960,2.021641 703.881348,2.007880 
	C711.308350,1.722658 718.323975,2.583691 725.647583,1.260467 
	C726.750000,1.000000 727.500000,1.000000 728.625000,1.000000 
	C735.901550,2.164456 742.852966,1.332487 749.779114,1.476707 
	C756.242432,1.611291 762.712769,1.596757 769.589722,1.225031 
	C783.354248,1.000000 796.708435,1.000000 810.531372,1.000000 
	C817.901550,2.164456 824.852966,1.332487 831.779114,1.476709 
	C838.242432,1.611292 844.712769,1.596757 851.589722,1.225031 
	C852.750000,1.000000 853.500000,1.000000 854.625000,1.000000 
	C859.279846,3.075994 863.827515,1.614195 868.238464,1.967819 
	C870.718811,2.166668 873.228088,2.003186 876.161316,2.004853 
	C877.471375,2.008302 878.344482,2.012941 879.649780,2.092052 
	C884.938538,3.075752 889.849487,2.402920 895.162659,2.640616 
	C896.172607,2.659245 896.745422,2.713973 897.735962,2.890614 
	C902.305115,4.187479 906.559814,3.386448 911.181580,3.643096 
	C912.167542,3.669614 912.726074,3.730470 913.691589,3.906244 
	C917.582397,5.128743 921.186584,4.418904 925.135803,4.717920 
	C925.818481,4.776758 926.089844,4.813029 926.762512,4.929749 
	C930.304382,6.088526 933.569580,5.454553 937.174011,5.733195 
	C937.844360,5.794526 938.110840,5.831840 938.771423,5.949105 
	C941.990356,7.032710 944.938293,6.498158 948.223145,6.748855 
	C948.883118,6.812864 949.145447,6.850531 949.796021,6.967834 
	C952.711670,7.954610 955.345154,7.569825 958.331177,7.690044 
	C959.246460,7.735646 959.764404,7.803857 960.660522,7.974721 
	C963.254944,8.880998 965.581665,8.605146 968.246948,8.781019 
	C968.880554,8.847631 969.132141,8.884981 969.755249,9.000061 
	C972.281433,9.888849 974.547607,9.620095 977.141235,9.793102 
	C977.754089,9.859428 977.996887,9.896578 978.597046,10.012065 
	C981.005981,10.888448 983.181885,10.677176 985.660767,10.915421 
	C986.244873,11.003664 986.475952,11.049274 987.046997,11.181789 
	C989.385986,11.987263 991.492676,11.693501 993.888733,11.967322 
	C994.460693,12.056894 994.687744,12.102383 995.250549,12.231676 
	C997.364929,12.912075 999.220947,12.718244 1001.392212,12.880800 
	C1001.968506,12.948873 1002.197632,12.986628 1002.765503,13.102238 
	C1004.862244,13.832865 1006.720154,13.751146 1008.889526,13.963867 
	C1009.462830,14.053536 1009.690613,14.098989 1010.255615,14.228252 
	C1012.382568,14.910107 1014.250122,14.709764 1016.433716,14.877758 
	C1017.012756,14.945541 1017.242920,14.982885 1017.813416,15.096582 
	C1019.692261,15.728385 1021.304565,15.755970 1023.253235,15.867645 
	C1023.823059,15.935472 1024.049072,15.973186 1024.607178,16.090378 
	C1026.427979,16.718502 1027.990845,16.826881 1029.884521,16.993309 
	C1030.435791,17.083961 1030.654053,17.129833 1031.194580,17.259445 
	C1032.996582,17.851919 1034.543091,17.806070 1036.403809,17.920280 
	C1036.950317,17.987333 1037.166870,18.024750 1037.702026,18.140549 
	C1039.451294,18.743372 1040.951416,18.853777 1042.770752,19.004562 
	C1043.297607,19.093843 1043.505615,19.139944 1044.018799,19.273239 
	C1045.710083,19.883509 1047.174927,19.889431 1048.932373,20.056532 
	C1049.445923,20.147593 1049.649048,20.194315 1050.151123,20.327082 
	C1051.825928,20.916161 1053.277832,20.889465 1055.015625,21.068331 
	C1055.527344,21.159443 1055.729980,21.205772 1056.231934,21.335733 
	C1057.717285,21.820103 1058.950928,21.890081 1060.499390,21.974495 
	C1061.018066,22.042408 1061.224121,22.080278 1061.733765,22.198177 
	C1063.219849,22.709465 1064.449707,22.906151 1066.014404,23.066223 
	C1066.541626,23.164202 1066.751587,23.213091 1067.274414,23.347960 
	C1068.848755,23.841087 1070.163452,23.874205 1071.798340,24.029854 
	C1072.346191,24.123379 1072.562988,24.172003 1073.098877,24.311510 
	C1074.461792,24.747223 1075.540649,24.907419 1076.951904,25.057323 
	C1077.482666,25.151354 1077.691895,25.198610 1078.207520,25.331635 
	C1079.706909,25.828354 1080.948853,25.902819 1082.505859,25.981726 
	C1083.022095,26.049292 1083.226929,26.087095 1083.732666,26.204967 
	C1085.200439,26.715561 1086.414551,26.912888 1087.957031,27.066935 
	C1088.470459,27.162811 1088.673950,27.211040 1089.177734,27.346577 
	C1090.470947,27.762194 1091.497192,27.912514 1092.844482,28.055073 
	C1093.358521,28.148613 1093.561890,28.196453 1094.063477,28.334648 
	C1095.533691,28.868521 1096.769775,28.955338 1098.314697,29.125660 
	C1098.839722,29.220949 1099.049683,29.267694 1099.574097,29.395302 
	C1101.178345,29.833479 1102.516724,29.896938 1104.171021,30.189945 
	C1107.096680,30.795563 1109.684814,31.311207 1112.610107,32.003902 
	C1114.367676,32.591301 1115.844727,32.713535 1117.665283,33.021690 
	C1120.700073,33.721478 1123.402588,34.195709 1126.424072,34.952103 
	C1128.182495,35.552998 1129.653564,35.715664 1131.471436,36.029556 
	C1133.030396,36.411999 1134.220093,36.745884 1135.803467,37.057411 
	C1137.634277,37.625797 1139.168823,37.730797 1141.065552,38.058929 
	C1196.436279,50.972244 1250.750732,66.394943 1305.424438,80.424614 
	C1325.101074,85.473770 1344.834351,90.268288 1365.041504,94.782257 
	C1366.857300,95.357254 1368.319458,95.719139 1370.178955,95.972855 
	C1371.662109,96.342484 1372.774170,96.699745 1374.241943,97.025200 
	C1375.804565,97.506096 1377.057373,97.833481 1378.672852,97.992371 
	C1379.192383,98.086662 1379.397217,98.134178 1379.900635,98.273010 
	C1381.351685,98.823318 1382.567993,98.953224 1384.094482,99.109604 
	C1384.601562,99.205452 1384.802734,99.253578 1385.301636,99.386673 
	C1386.589478,99.787285 1387.612671,99.918419 1388.952637,100.064865 
	C1389.468018,100.158264 1389.672119,100.205399 1390.177002,100.338638 
	C1391.464600,100.750587 1392.483276,100.910324 1393.821533,101.049805 
	C1394.328979,101.141907 1394.529297,101.189072 1395.022461,101.326096 
	C1396.455200,101.860184 1397.658813,101.960236 1399.161743,102.118355 
	C1399.661133,102.212303 1399.859131,102.259323 1400.350098,102.388641 
	C1401.813477,102.857597 1403.030396,102.899826 1404.554443,102.987366 
	C1405.067871,103.055489 1405.271851,103.093407 1405.776123,103.210754 
	C1407.247192,103.713379 1408.464233,103.904160 1410.006470,104.060730 
	C1410.518433,104.154343 1410.721313,104.201088 1411.223877,104.331703 
	C1412.711426,104.817589 1413.946899,104.888847 1415.497559,104.973495 
	C1416.015991,105.041298 1416.221802,105.079048 1416.730469,105.196518 
	C1418.206421,105.703438 1419.425415,105.905159 1420.973389,106.059647 
	C1421.487183,106.154190 1421.691040,106.201614 1422.195801,106.334641 
	C1423.896729,106.915543 1425.370850,106.879837 1427.136963,107.071358 
	C1427.664185,107.163216 1427.873901,107.209129 1428.396118,107.335045 
	C1430.176880,107.879700 1431.703125,107.808540 1433.542725,107.932556 
	C1434.092773,108.000961 1434.311768,108.038628 1434.854980,108.153046 
	C1436.447876,108.660049 1437.763672,108.805504 1439.426636,108.909256 
	C1439.982544,108.980759 1440.203735,109.019394 1440.751709,109.137192 
	C1442.563965,109.753830 1444.124878,109.825058 1446.011475,110.004959 
	C1446.569092,110.095978 1446.790771,110.141495 1447.341553,110.268753 
	C1449.427856,110.915207 1451.255615,110.728683 1453.396240,110.886887 
	C1453.964600,110.954453 1454.190430,110.991959 1454.750122,111.107018 
	C1456.812866,111.825775 1458.638062,111.769386 1460.773682,111.965240 
	C1461.335938,112.055077 1461.559082,112.101250 1462.111816,112.233376 
	C1464.185669,112.933128 1466.023560,112.765976 1468.162720,113.011284 
	C1468.737427,113.102074 1468.966919,113.147163 1469.538696,113.272598 
	C1472.210693,113.987579 1474.605347,113.595596 1477.323486,113.832176 
	C1477.924072,113.900253 1478.163330,113.937958 1478.757324,114.053574 
	C1481.195679,114.911758 1483.400269,114.652451 1485.914062,114.924324 
	C1486.521973,115.014313 1486.764160,115.059875 1487.366455,115.191483 
	C1490.156250,116.002274 1492.666382,115.554871 1495.510864,115.818695 
	C1496.145020,115.890800 1496.398438,115.930275 1497.028564,116.051880 
	C1499.928833,116.950150 1502.538330,116.565765 1505.509521,116.692833 
	C1506.440918,116.741257 1506.970703,116.811813 1507.893799,116.987846 
	C1511.462646,118.062309 1514.741699,117.452530 1518.376343,117.738403 
	C1519.064941,117.804169 1519.339844,117.843964 1520.023193,117.969177 
	C1524.562866,119.148247 1528.780151,118.399841 1533.379395,118.638184 
	C1534.382324,118.670937 1534.952759,118.740417 1535.946045,118.926102 
	C1541.541260,120.214775 1546.787598,119.361320 1552.439941,119.581490 
	C1553.800415,119.545097 1554.699951,119.673660 1556.053711,119.896461 
	C1563.744019,121.270645 1571.040527,120.364799 1578.306030,120.557693 
	C1583.767334,120.702690 1589.236084,120.609161 1595.172852,120.553947 
	C1597.256836,120.416206 1598.816284,120.572708 1600.620850,121.711784 
z"/>
<path fill="#000000" opacity="1.000000" stroke="none" 
	d="
M1366.359985,96.303192 
	C1356.100342,93.992302 1346.110229,92.065491 1336.254517,89.601433 
	C1309.248047,82.849350 1282.216553,76.171997 1255.347168,68.902313 
	C1225.677612,60.874973 1196.003418,52.882858 1166.141968,45.599072 
	C1157.845581,43.575413 1149.521729,41.664394 1141.023560,39.341179 
	C1139.558838,37.999435 1138.059448,38.724678 1136.359985,38.303169 
	C1134.748169,38.002861 1133.467163,37.841553 1132.011230,37.330482 
	C1130.558838,35.999294 1129.059570,36.724781 1127.360596,36.303005 
	C1124.092529,35.678581 1121.155273,35.193295 1118.027588,34.343685 
	C1116.557617,33.001106 1115.058228,33.723820 1113.357422,33.303566 
	C1110.090210,32.679230 1107.154053,32.193573 1104.027344,31.343632 
	C1102.511963,29.984304 1100.931885,30.781757 1099.255127,30.107279 
	C1098.985352,29.849482 1098.998901,29.974905 1099.061279,29.965134 
	C1097.692383,29.043568 1096.058472,29.741938 1094.269775,29.116394 
	C1093.981567,28.852140 1093.999878,28.978125 1094.062500,28.966335 
	C1092.692993,28.044777 1091.059082,28.741394 1089.270020,28.116133 
	C1088.981812,27.851683 1088.999268,27.977505 1089.061768,27.966162 
	C1087.740967,27.073092 1086.184082,27.684347 1084.376953,27.304281 
	C1084.027466,27.164923 1083.555542,27.006144 1083.309326,26.968714 
	C1081.643921,26.047808 1080.030273,26.745995 1078.265259,26.112812 
	C1077.982666,25.849113 1077.998047,25.975885 1078.061035,25.965540 
	C1076.692505,25.043837 1075.058350,25.741926 1073.269775,25.115755 
	C1072.981812,24.851049 1072.999634,24.977495 1073.062500,24.965961 
	C1071.358643,23.984816 1069.412842,24.777998 1067.282959,24.124329 
	C1066.979004,23.857391 1066.999268,23.981071 1067.060669,23.968655 
	C1065.740967,23.071213 1064.184814,23.685366 1062.379639,23.303795 
	C1062.030518,23.164097 1061.557007,23.005989 1061.310059,22.969059 
	C1059.644409,22.047070 1058.030640,22.746098 1056.265259,22.113647 
	C1055.982178,21.850456 1055.998779,21.976858 1056.061523,21.965878 
	C1054.357666,20.983583 1052.410767,21.779573 1050.282227,21.121239 
	C1049.979614,20.852489 1049.999146,20.979080 1050.062012,20.966831 
	C1048.357910,19.984028 1046.411011,20.779377 1044.282227,20.121071 
	C1043.979736,19.852192 1043.998291,19.978422 1044.061035,19.966751 
	C1042.409546,19.011675 1040.537598,19.724255 1038.394653,19.304453 
	C1038.029053,19.164793 1037.556030,19.006052 1037.309326,18.968630 
	C1035.308716,17.993937 1033.383789,18.779892 1031.278076,18.118515 
	C1030.980347,17.850386 1030.997925,17.977459 1031.061035,17.966175 
	C1029.409424,17.011974 1027.537109,17.724113 1025.393555,17.304298 
	C1025.027954,17.164492 1024.555664,17.005751 1024.309570,16.967205 
	C1022.360046,16.025549 1020.510803,16.720634 1018.388794,16.304436 
	C1018.027405,16.164845 1017.556091,16.006258 1017.310181,15.969924 
	C1014.975220,14.955907 1012.734009,15.803130 1010.288330,15.122138 
	C1009.979004,14.850198 1009.997131,14.977972 1010.060669,14.966488 
	C1008.076477,13.970175 1005.886536,14.752492 1003.406006,14.304558 
	C1003.027588,14.164540 1002.555542,14.005874 1002.309570,13.967661 
	C999.973755,12.960755 997.734314,13.800612 995.288208,13.123323 
	C994.978455,12.852242 994.998718,12.979447 995.061890,12.966921 
	C992.687012,11.916838 990.105957,12.821066 987.300049,12.127035 
	C986.977722,11.851708 986.997375,11.979196 987.060730,11.967081 
	C984.743042,10.940930 982.233398,11.772814 979.416077,11.304714 
	C979.027588,11.164472 978.555908,11.005812 978.310059,10.967488 
	C975.695862,9.962549 973.209717,10.764360 970.413269,10.304804 
	C970.028198,10.164729 969.556213,10.005804 969.310181,9.967484 
	C966.695862,8.962549 964.209717,9.764360 961.413269,9.304806 
	C960.593140,9.108226 960.158081,9.051720 959.393860,8.964148 
	C956.362976,7.967798 953.557678,8.752959 950.423584,8.304598 
	C950.030029,8.164083 949.557068,8.005625 949.310730,7.966560 
	C946.027283,6.985711 942.901062,7.752426 939.430176,7.305083 
	C939.029602,7.164670 938.556946,7.005542 938.310791,6.965785 
	C934.696716,5.928812 931.241272,6.792631 927.436096,6.305151 
	C927.029480,6.164559 926.556946,6.005521 926.310791,5.965775 
	C922.361084,4.980971 918.583862,5.756340 914.441284,5.305236 
	C913.594055,5.107870 913.158508,5.051240 912.393738,4.960677 
	C907.695496,3.956117 903.261536,4.770036 898.448853,4.305268 
	C897.593445,4.107681 897.158203,4.051183 896.393921,3.961082 
	C891.030823,2.924760 885.937439,3.794131 880.455872,3.305575 
	C879.288513,3.107322 878.547852,3.050241 877.435913,2.959027 
	C876.682434,2.567501 876.515442,2.128314 876.781982,1.303634 
	C1116.709106,1.000000 1356.418335,1.018136 1596.127319,0.863589 
	C1600.694336,0.860644 1601.103882,2.222650 1601.088867,6.122574 
	C1600.941528,44.435490 1601.000000,82.749199 1601.000000,121.531342 
	C1599.628174,121.997749 1598.256470,121.995499 1596.474609,121.960106 
	C1585.847534,120.945221 1575.605103,121.740311 1565.377441,121.493263 
	C1562.566528,121.425362 1559.753174,121.527435 1556.484619,121.306976 
	C1555.287354,121.107895 1554.547119,121.050552 1553.435669,120.959160 
	C1547.696655,119.945007 1542.275146,120.777206 1536.458374,120.305855 
	C1535.593506,120.108078 1535.158325,120.051399 1534.393921,119.961151 
	C1529.695557,118.955200 1525.260986,119.770447 1520.447754,119.305725 
	C1520.027344,119.165001 1519.555908,119.005890 1519.310303,118.967331 
	C1515.697144,117.925278 1512.241211,118.794418 1508.436279,118.305092 
	C1507.594482,118.108070 1507.159424,118.051704 1506.394897,117.964966 
	C1503.363770,116.965881 1500.557739,117.753922 1497.423096,117.304153 
	C1497.029541,117.163254 1496.556885,117.005417 1496.310791,116.966232 
	C1493.300903,115.985268 1490.429077,116.786346 1487.303467,116.129211 
	C1486.976685,115.853432 1486.997925,115.980453 1487.061035,115.967674 
	C1484.743408,114.941025 1482.234009,115.772766 1479.416992,115.304657 
	C1479.028442,115.164352 1478.556519,115.005577 1478.310669,114.966316 
	C1475.300781,113.985130 1472.428955,114.786552 1469.303467,114.128937 
	C1468.976807,113.853050 1468.996948,113.980103 1469.060059,113.967850 
	C1467.021729,112.942696 1464.759644,113.804794 1462.292236,113.125351 
	C1461.978271,112.853508 1461.998901,112.980003 1462.061768,112.967361 
	C1460.076782,111.970551 1457.886963,112.752335 1455.406494,112.304459 
	C1455.028076,112.164383 1454.555786,112.005852 1454.309570,111.967674 
	C1451.973999,110.960884 1449.734985,111.800232 1447.288696,111.124191 
	C1446.978516,110.853577 1446.998779,110.979935 1447.061523,110.967392 
	C1445.409912,110.012070 1443.538086,110.724007 1441.395020,110.304512 
	C1441.029297,110.164864 1440.556030,110.005989 1440.309326,109.968292 
	C1438.691650,109.076820 1437.156860,109.685638 1435.373291,109.303650 
	C1435.028931,109.163948 1434.556152,109.005623 1434.310059,108.966415 
	C1432.308350,107.998589 1430.384644,108.777466 1428.277954,108.119621 
	C1427.979736,107.852234 1427.998047,107.978455 1428.060791,107.966896 
	C1426.357178,106.982941 1424.410278,107.779938 1422.281982,107.121094 
	C1421.979492,106.852272 1421.999146,106.979004 1422.062134,106.966667 
	C1420.741333,106.073769 1419.184570,106.684021 1417.376953,106.304298 
	C1417.027466,106.164925 1416.555786,106.005890 1416.309937,105.967300 
	C1414.643799,105.050743 1413.031616,105.744179 1411.265381,105.114784 
	C1410.981689,104.852310 1411.000244,104.978279 1411.062744,104.966286 
	C1409.741455,104.073845 1408.184692,104.683952 1406.376953,104.304291 
	C1406.027466,104.164886 1405.555542,104.005997 1405.309570,103.967751 
	C1403.643799,103.049995 1402.031372,103.744499 1400.265381,103.114777 
	C1399.981689,102.852303 1399.999756,102.978180 1400.062256,102.966469 
	C1398.692749,102.044380 1397.058716,102.741638 1395.269775,102.115921 
	C1394.981689,101.851341 1394.999023,101.977516 1395.061768,101.966217 
	C1393.692627,101.044243 1392.058594,101.741714 1390.269775,101.115913 
	C1389.981689,100.851341 1389.999023,100.977516 1390.061768,100.966217 
	C1388.692627,100.044250 1387.058594,100.741692 1385.269775,100.115936 
	C1384.981689,99.851372 1384.999023,99.977554 1385.061768,99.966232 
	C1383.692627,99.044258 1382.058716,99.741684 1380.269775,99.115952 
	C1379.981812,98.851387 1379.998779,98.977386 1380.061279,98.966225 
	C1378.741333,98.072784 1377.184814,98.684601 1375.378418,98.303741 
	C1373.748291,98.002724 1372.467285,97.841454 1371.011353,97.330368 
	C1369.558716,95.999542 1368.059326,96.724632 1366.359985,96.303192 
z"/>
<path fill="#000000" opacity="1.000000" stroke="none" 
	d="
M604.294312,10.732542 
	C603.935608,10.929233 603.443970,11.005816 603.208130,11.085142 
	C600.561890,11.866144 598.085449,11.267484 595.294312,11.732542 
	C594.935608,11.929233 594.444031,12.005863 594.208252,12.085224 
	C591.874023,12.855817 589.697266,12.261697 587.224976,12.754680 
	C586.875427,12.954856 587.001892,12.979912 587.012146,12.916256 
	C584.661926,14.244757 582.061340,13.071159 579.245361,13.750414 
	C578.875793,13.955143 579.001587,13.979907 579.011597,13.916603 
	C577.014282,15.148749 574.760498,14.145471 572.296204,14.732653 
	C571.936340,14.929651 571.444336,15.005888 571.208374,15.085171 
	C568.874084,15.855970 566.697388,15.261634 564.225342,15.754811 
	C563.875854,15.955132 564.001465,15.978809 564.010864,15.915598 
	C562.361328,17.151451 560.408447,16.146765 558.285034,16.733490 
	C557.936096,16.927362 557.443298,17.005602 557.206787,17.084991 
	C555.202698,17.831976 553.345703,17.275345 551.212769,17.757725 
	C550.875427,17.954865 551.001953,17.977562 551.010742,17.913914 
	C549.361694,19.153990 547.407776,18.145351 545.285400,18.735363 
	C544.937317,18.930847 544.444153,19.005934 544.207581,19.084915 
	C542.203857,19.832350 540.347046,19.275389 538.215088,19.758369 
	C537.878418,19.956419 538.000366,19.981497 538.010681,19.920120 
	C536.341553,21.153311 534.366394,20.133623 532.225342,20.754852 
	C531.875305,20.954931 532.001221,20.978781 532.010681,20.915417 
	C530.343872,22.160578 528.365784,21.130293 526.224976,21.754587 
	C525.874573,21.954435 526.000671,21.979059 526.010498,21.915586 
	C524.344238,23.160376 522.366394,22.130463 520.226074,22.755035 
	C519.876038,22.955404 520.002014,22.976278 520.009766,22.912905 
	C518.703430,24.076727 517.056213,23.192282 515.270752,23.738148 
	C514.937317,23.930723 514.444336,24.006016 514.208008,24.085390 
	C512.532898,24.799078 510.990509,24.293520 509.196655,24.761837 
	C508.874146,24.954210 509.000305,24.977465 509.009277,24.913952 
	C507.687042,26.084837 506.014832,25.176613 504.212036,25.758503 
	C503.875580,25.955252 504.001495,25.976629 504.009521,25.913288 
	C502.703064,27.076399 501.055878,26.192335 499.270386,26.738430 
	C498.937012,26.931168 498.444550,27.006102 498.208496,27.085505 
	C496.533539,27.798895 494.991150,27.293688 493.197327,27.761978 
	C492.874939,27.954615 493.000397,27.977913 493.009399,27.914743 
	C491.686432,29.083784 490.014618,28.177038 488.211365,28.758301 
	C487.874756,28.954788 488.000793,28.977438 488.009491,28.914001 
	C486.686859,30.084780 485.014679,29.176624 483.211670,29.758305 
	C482.875122,29.954851 483.001221,29.976780 483.009521,29.913326 
	C481.703308,31.076376 480.056152,30.192461 478.270264,30.737724 
	C475.056854,31.359928 472.177185,31.789955 469.114777,32.577671 
	C467.591583,34.029491 465.974182,33.193203 464.202637,33.760811 
	C463.874908,33.954823 464.000519,33.977757 464.009338,33.914524 
	C462.702515,35.075089 461.055603,34.192867 459.269562,34.738464 
	C456.384674,35.364616 453.833252,35.798103 451.107422,36.583633 
	C449.608337,38.019764 448.016510,37.210754 446.262054,37.739143 
	C444.707245,38.039154 443.476959,38.148994 442.089722,38.597149 
	C440.608215,40.020035 439.016266,39.210621 437.261658,39.738937 
	C426.428040,42.367119 415.852966,44.553532 405.422241,47.289978 
	C371.835449,56.101318 338.185455,64.705147 304.785187,74.183235 
	C278.783020,81.561935 252.502808,87.810722 226.406235,94.789223 
	C220.801300,96.288055 215.010269,97.091026 209.118561,98.574936 
	C207.607758,100.020393 206.015747,99.210381 204.261414,99.739174 
	C201.057236,100.359413 198.177612,100.789536 195.115540,101.577438 
	C193.592407,103.029350 191.974854,102.193359 190.203079,102.760872 
	C189.875397,102.955025 190.000992,102.977547 190.009644,102.914337 
	C188.686630,104.084175 187.014694,103.176895 185.211624,103.758377 
	C184.875076,103.954964 185.000183,103.978416 185.009338,103.915436 
	C183.702316,105.073776 182.056259,104.193649 180.269684,104.737198 
	C178.212341,105.378189 176.211105,104.226761 174.331024,106.002136 
	C172.533539,106.798904 170.991150,106.293671 169.197327,106.761978 
	C168.874954,106.954597 169.000534,106.979485 169.010529,106.916260 
	C167.343918,108.159363 165.366440,107.130936 163.226044,107.755013 
	C162.875992,107.955360 163.002060,107.976151 163.009796,107.912735 
	C161.703522,109.076927 160.056244,108.192207 158.270844,108.738113 
	C157.937378,108.930672 157.443634,109.005928 157.206772,109.085030 
	C155.548584,109.791473 154.029709,109.310905 152.255829,109.740913 
	C151.937378,109.930664 151.444260,110.006065 151.207840,110.085571 
	C149.203369,110.831238 147.346176,110.275703 145.212952,110.757751 
	C144.875595,110.954956 145.001236,110.978775 145.010681,110.915543 
	C143.361145,112.151672 141.408051,111.146523 139.284851,111.734375 
	C138.936295,111.928986 138.444397,112.005875 138.208496,112.085358 
	C136.221970,112.824608 134.386963,112.291519 132.271988,112.736588 
	C131.936417,112.928802 131.443726,113.005753 131.207367,113.085144 
	C129.220840,113.824966 127.386055,113.291245 125.271698,113.737045 
	C124.936378,113.929558 124.443886,114.005798 124.207611,114.084946 
	C121.542519,114.873779 119.044029,114.251556 116.234406,114.752380 
	C115.875099,114.954735 116.001762,114.979912 116.012070,114.916168 
	C113.680511,116.234886 111.103645,115.086067 108.305351,115.731865 
	C107.935631,115.929207 107.443665,116.005836 107.207733,116.085297 
	C104.561783,116.865646 102.085960,116.267975 99.294800,116.731232 
	C98.935623,116.926895 98.443794,117.005585 98.207726,117.084930 
	C95.231346,117.879639 92.431488,117.258812 89.303528,117.730377 
	C88.935478,117.926643 88.443810,118.005569 88.207840,118.085007 
	C84.900871,118.890770 81.775291,118.249741 78.310921,118.731064 
	C77.495285,118.956352 77.055412,118.985542 76.293320,119.089752 
	C72.236679,119.864197 68.459274,119.262260 64.322861,119.732285 
	C63.495155,119.956818 63.055408,119.985748 62.293488,120.089417 
	C56.911388,120.919579 51.815853,120.227264 46.340221,120.732414 
	C45.191040,120.955841 44.446644,120.985588 43.337158,121.090431 
	C30.590199,121.930763 18.193304,121.210945 5.371213,121.734314 
	C3.886139,121.951408 2.836887,121.975700 1.393818,122.000000 
	C1.000000,83.187286 1.055070,44.374371 0.909508,5.562203 
	C0.895885,1.929841 1.538399,0.894716 5.433409,0.896650 
	C237.976471,1.012107 470.519562,1.000000 703.531372,1.000000 
	C704.343140,1.388915 704.492676,1.837676 704.177002,2.640690 
	C703.190796,2.955709 702.446472,2.985483 701.336975,3.089838 
	C695.911560,3.919223 690.815796,3.227456 685.339905,3.732424 
	C684.495361,3.955677 684.055542,3.985214 683.293579,4.089862 
	C678.574768,4.891223 674.139587,4.249484 669.332886,4.731750 
	C668.935181,4.925635 668.442993,5.005493 668.206665,5.084991 
	C664.236511,5.864456 660.459656,5.262187 656.323425,5.731436 
	C655.495056,5.955713 655.055054,5.985186 654.292603,6.089387 
	C650.898560,6.891214 647.772278,6.249452 644.308716,6.734242 
	C643.494995,6.960547 643.055481,6.987666 642.294067,7.089646 
	C638.901245,7.890696 635.775696,7.249762 632.311218,7.730769 
	C631.935303,7.926553 631.443542,8.005548 631.207520,8.085074 
	C628.230896,8.879303 625.430725,8.258871 622.303101,8.731878 
	C621.935791,8.929542 621.444092,9.005862 621.208252,9.085165 
	C618.561890,9.866144 616.085449,9.267484 613.294312,9.732542 
	C612.935608,9.929233 612.443970,10.005816 612.208130,10.085142 
	C609.561890,10.866144 607.085449,10.267484 604.294312,10.732542 
z"/>
<path fill="#FDFCF9" opacity="1.000000" stroke="none" 
	d="
M704.405884,2.953784 
	C704.147705,2.459174 704.360229,1.992412 704.286377,1.262825 
	C711.020935,1.000000 718.041931,1.000000 725.531433,1.000000 
	C725.396423,3.412046 723.449951,2.991567 721.734192,2.994398 
	C716.114990,3.003671 710.495789,2.987823 704.405884,2.953784 
z"/>
<path fill="#FDFCF8" opacity="1.000000" stroke="none" 
	d="
M876.531433,1.000000 
	C876.438965,1.318772 876.365540,1.719781 876.930664,2.565381 
	C871.088928,2.949713 865.112061,3.044359 859.138611,2.940776 
	C857.935669,2.919917 856.017090,3.974048 855.301270,1.294632 
	C862.020935,1.000000 869.041931,1.000000 876.531433,1.000000 
z"/>
<path fill="#FDFCF8" opacity="1.000000" stroke="none" 
	d="
M769.531372,1.000005 
	C769.447876,1.314822 768.894470,1.906439 768.343811,1.903863 
	C755.420044,1.843407 742.490356,2.453093 729.286499,1.308572 
	C742.354248,1.000000 755.708435,1.000000 769.531372,1.000005 
z"/>
<path fill="#FDFCF8" opacity="1.000000" stroke="none" 
	d="
M851.531372,1.000005 
	C851.444763,1.314829 850.888306,1.906271 850.334412,1.903898 
	C837.408875,1.848510 824.477905,2.438036 811.279175,1.314076 
	C824.354248,1.000000 837.708435,1.000000 851.531372,1.000005 
z"/>
<path fill="#FEFDFA" opacity="1.000000" stroke="none" 
	d="
M1556.336914,121.440079 
	C1569.234863,121.162338 1582.441895,121.159439 1595.856812,121.541763 
	C1582.925171,121.856285 1569.785645,121.785599 1556.336914,121.440079 
z"/>
<path fill="#FEFDFA" opacity="1.000000" stroke="none" 
	d="
M5.406239,121.954384 
	C6.111066,120.105438 7.925901,121.054344 9.408136,121.042946 
	C20.287489,120.959251 31.167858,121.007355 42.509987,121.089722 
	C40.894604,122.773468 38.483765,121.932617 36.244797,121.954094 
	C26.123070,122.051193 15.999802,121.987465 5.406239,121.954384 
z"/>
<path fill="#FDFCF8" opacity="1.000000" stroke="none" 
	d="
M1536.337280,120.439392 
	C1541.569092,120.161896 1547.109497,120.159042 1552.857178,120.540649 
	C1547.591675,120.854752 1542.118652,120.784393 1536.337280,120.439392 
z"/>
<path fill="#FDFCF8" opacity="1.000000" stroke="none" 
	d="
M880.337158,3.439194 
	C885.236389,3.162503 890.443604,3.160603 895.857910,3.543092 
	C890.924988,3.856315 885.785034,3.785150 880.337158,3.439194 
z"/>
<path fill="#FDFCF8" opacity="1.000000" stroke="none" 
	d="
M685.403442,3.953819 
	C689.863708,1.794022 695.028809,3.576101 700.511963,3.088482 
	C696.021912,4.978642 690.896301,3.545830 685.403442,3.953819 
z"/>
<path fill="#FDFCF8" opacity="1.000000" stroke="none" 
	d="
M46.403732,120.953796 
	C50.863667,118.792747 56.028755,120.577560 61.511543,120.088226 
	C57.021706,121.978912 51.896259,120.545319 46.403732,120.953796 
z"/>
<path fill="#FDFCF8" opacity="1.000000" stroke="none" 
	d="
M669.399963,4.953423 
	C673.182861,2.801232 677.702026,4.582459 682.514648,4.089196 
	C678.699036,5.986586 674.223755,4.549880 669.399963,4.953423 
z"/>
<path fill="#FDFDF9" opacity="1.000000" stroke="none" 
	d="
M1520.334473,119.439323 
	C1524.569580,119.163460 1529.111816,119.161919 1533.859375,119.543983 
	C1529.590332,119.856270 1525.115967,119.784958 1520.334473,119.439323 
z"/>
<path fill="#FDFCF8" opacity="1.000000" stroke="none" 
	d="
M898.335327,4.438811 
	C902.570129,4.162849 907.111633,4.161518 911.858765,4.543465 
	C907.590332,4.855643 903.116150,4.784542 898.335327,4.438811 
z"/>
<path fill="#FDFCF8" opacity="1.000000" stroke="none" 
	d="
M656.393127,5.953423 
	C659.505981,3.912887 663.371338,5.490541 667.519287,5.088758 
	C664.376099,6.964736 660.546814,5.562723 656.393127,5.953423 
z"/>
<path fill="#FDFCF8" opacity="1.000000" stroke="none" 
	d="
M914.334045,5.437865 
	C917.906067,5.164098 921.782593,5.163696 925.861938,5.544662 
	C922.255981,5.854430 918.447266,5.782830 914.334045,5.437865 
z"/>
<path fill="#FDFCF9" opacity="1.000000" stroke="none" 
	d="
M64.392975,119.954216 
	C67.505882,117.915138 71.371552,119.489899 75.519913,119.089066 
	C72.376610,120.966095 68.546768,119.559242 64.392975,119.954216 
z"/>
<path fill="#FDFCF8" opacity="1.000000" stroke="none" 
	d="
M927.331909,6.437134 
	C930.574341,6.165257 934.119202,6.165955 937.864380,6.546340 
	C934.587891,6.853921 931.111084,6.781815 927.331909,6.437134 
z"/>
<path fill="#FDFCF8" opacity="1.000000" stroke="none" 
	d="
M1508.331787,118.437088 
	C1511.574341,118.166016 1515.119019,118.167580 1518.864136,118.548958 
	C1515.587769,118.855759 1512.110840,118.782745 1508.331787,118.437088 
z"/>
<path fill="#FDFCF8" opacity="1.000000" stroke="none" 
	d="
M939.329712,7.436535 
	C942.242615,7.166954 945.455627,7.169237 948.866516,7.549508 
	C945.919556,7.854464 942.774719,7.781432 939.329712,7.436535 
z"/>
<path fill="#FDFCF8" opacity="1.000000" stroke="none" 
	d="
M644.380737,6.957952 
	C646.823120,5.011843 650.050293,6.456290 653.528931,6.088410 
	C651.053101,7.895956 647.865540,6.607015 644.380737,6.957952 
z"/>
<path fill="#FDFCF9" opacity="1.000000" stroke="none" 
	d="
M78.381180,118.953598 
	C80.826180,117.018578 84.051361,118.455879 87.530319,118.088715 
	C85.053787,119.895470 81.866348,118.606438 78.381180,118.953598 
z"/>
<path fill="#FDFCF8" opacity="1.000000" stroke="none" 
	d="
M632.381287,7.953195 
	C634.826538,6.018418 638.051636,7.455820 641.530640,7.088769 
	C639.054016,8.895273 635.866577,7.606763 632.381287,7.953195 
z"/>
<path fill="#FDFCF9" opacity="1.000000" stroke="none" 
	d="
M1469.222168,114.190445 
	C1471.876709,113.960655 1474.776611,114.068268 1477.870605,114.551468 
	C1475.196899,114.842354 1472.295532,115.474533 1469.222168,114.190445 
z"/>
<path fill="#FEFDF9" opacity="1.000000" stroke="none" 
	d="
M622.373535,8.954906 
	C624.463867,6.896245 627.400085,8.500190 630.536621,8.088913 
	C628.391602,9.838387 625.523743,8.632200 622.373535,8.954906 
z"/>
<path fill="#FDFCF7" opacity="1.000000" stroke="none" 
	d="
M950.326294,8.435067 
	C952.911865,8.170233 955.793640,8.176383 958.870117,8.557806 
	C956.250671,8.857404 953.436646,8.781728 950.326294,8.435067 
z"/>
<path fill="#FDFCF9" opacity="1.000000" stroke="none" 
	d="
M1487.222168,116.190720 
	C1489.876587,115.960915 1492.776611,116.068390 1495.870605,116.551453 
	C1493.196899,116.842560 1490.295654,117.474335 1487.222168,116.190720 
z"/>
<path fill="#FDFCF8" opacity="1.000000" stroke="none" 
	d="
M89.373169,117.953186 
	C91.465271,115.903877 94.399635,117.496361 97.536667,117.088539 
	C95.391640,118.839615 92.523621,117.632713 89.373169,117.953186 
z"/>
<path fill="#FDFCF7" opacity="1.000000" stroke="none" 
	d="
M1497.325195,117.435066 
	C1499.911743,117.170052 1502.793945,117.176849 1505.870850,117.559113 
	C1503.250732,117.858681 1500.435791,117.782784 1497.325195,117.435066 
z"/>
<path fill="#FDFDF9" opacity="1.000000" stroke="none" 
	d="
M979.320801,11.435059 
	C981.590332,11.179854 984.153015,11.195237 986.919922,11.582792 
	C984.620728,11.871859 982.117310,11.788752 979.320801,11.435059 
z"/>
<path fill="#FDFCF8" opacity="1.000000" stroke="none" 
	d="
M116.308731,114.969070 
	C118.080498,113.035973 120.714088,114.408714 123.544449,114.088333 
	C121.718353,115.819565 119.145760,114.655128 116.308731,114.969070 
z"/>
<path fill="#FDFDF9" opacity="1.000000" stroke="none" 
	d="
M108.371185,115.954460 
	C110.137878,114.048920 112.765915,115.437271 115.588531,114.920624 
	C113.898857,117.031281 111.209816,115.590279 108.371185,115.954460 
z"/>
<path fill="#FDFCF8" opacity="1.000000" stroke="none" 
	d="
M1479.321533,115.434959 
	C1481.590942,115.179695 1484.153442,115.195038 1486.920044,115.582642 
	C1484.620972,115.871788 1482.117798,115.788681 1479.321533,115.434959 
z"/>
<path fill="#FEFDF9" opacity="1.000000" stroke="none" 
	d="
M99.362656,116.953079 
	C101.131172,115.058952 103.735352,116.404457 106.545258,116.089111 
	C104.733894,117.813034 102.178352,116.660439 99.362656,116.953079 
z"/>
<path fill="#FDFDF9" opacity="1.000000" stroke="none" 
	d="
M595.362793,11.954346 
	C597.130066,10.054979 599.735840,11.405886 602.545776,11.088738 
	C600.734741,12.815537 598.178406,11.658129 595.362793,11.954346 
z"/>
<path fill="#FEFDF9" opacity="1.000000" stroke="none" 
	d="
M970.320679,10.434729 
	C972.580261,10.171256 975.132385,10.177782 977.874268,10.556738 
	C975.580444,10.854354 973.096802,10.779542 970.320679,10.434729 
z"/>
<path fill="#FDFDF9" opacity="1.000000" stroke="none" 
	d="
M604.362793,10.954346 
	C606.130066,9.054979 608.735840,10.405886 611.545776,10.088738 
	C609.734741,11.815537 607.178406,10.658129 604.362793,10.954346 
z"/>
<path fill="#FEFDF9" opacity="1.000000" stroke="none" 
	d="
M961.320679,9.434729 
	C963.580261,9.171255 966.132385,9.177781 968.874268,9.556736 
	C966.580444,9.854353 964.096802,9.779540 961.320679,9.434729 
z"/>
<path fill="#FDFDF9" opacity="1.000000" stroke="none" 
	d="
M613.362793,9.954346 
	C615.130066,8.054979 617.735840,9.405886 620.545776,9.088738 
	C618.734741,10.815537 616.178406,9.658129 613.362793,9.954346 
z"/>
<path fill="#FDFCF9" opacity="1.000000" stroke="none" 
	d="
M579.317749,13.969149 
	C581.088501,12.026819 583.745239,13.442373 586.588074,12.920646 
	C584.882690,15.035706 582.177246,13.584497 579.317749,13.969149 
z"/>
<path fill="#FDFCF8" opacity="1.000000" stroke="none" 
	d="
M987.219727,12.188320 
	C989.557190,11.970863 992.136597,12.090016 994.920593,12.581781 
	C992.569946,12.823636 989.971191,13.470034 987.219727,12.188320 
z"/>
<path fill="#FDFCF9" opacity="1.000000" stroke="none" 
	d="
M587.296631,12.968662 
	C588.704346,10.922733 591.074951,12.492430 593.554932,12.088795 
	C592.058777,13.746296 589.801331,12.698967 587.296631,12.968662 
z"/>
<path fill="#FEFCFA" opacity="1.000000" stroke="none" 
	d="
M1462.214966,113.187592 
	C1464.227295,112.975304 1466.476440,113.097099 1468.924316,113.587242 
	C1466.897949,113.833687 1464.625000,114.444107 1462.214966,113.187592 
z"/>
<path fill="#FDFCF8" opacity="1.000000" stroke="none" 
	d="
M1455.315430,112.433395 
	C1457.261230,112.182610 1459.494385,112.200836 1461.926025,112.586899 
	C1459.950562,112.870613 1457.776611,112.786507 1455.315430,112.433395 
z"/>
<path fill="#FEFCFA" opacity="1.000000" stroke="none" 
	d="
M1447.213867,111.186920 
	C1449.217041,110.966522 1451.455688,111.079475 1453.878906,111.560959 
	C1451.854492,111.861778 1449.606079,112.431297 1447.213867,111.186920 
z"/>
<path fill="#FEFCFA" opacity="1.000000" stroke="none" 
	d="
M995.213623,13.185844 
	C997.217041,12.965635 999.455566,13.079029 1001.878845,13.560936 
	C999.854370,13.861494 997.605652,14.432034 995.213623,13.185844 
z"/>
<path fill="#FEFCFA" opacity="1.000000" stroke="none" 
	d="
M572.361755,14.954370 
	C573.758484,12.912106 576.127991,14.524838 578.597656,13.921199 
	C577.258850,15.974850 574.866699,14.611409 572.361755,14.954370 
z"/>
<path fill="#FEFCF9" opacity="1.000000" stroke="none" 
	d="
M1003.315063,14.433541 
	C1005.260742,14.182898 1007.493896,14.201255 1009.925598,14.587307 
	C1007.950256,14.870850 1005.776367,14.786696 1003.315063,14.433541 
z"/>
<path fill="#FDFCF9" opacity="1.000000" stroke="none" 
	d="
M564.297119,15.968762 
	C565.704590,13.923807 568.075134,15.492955 570.554810,15.088675 
	C569.058960,16.746954 566.801453,15.697761 564.297119,15.968762 
z"/>
<path fill="#FDFCF8" opacity="1.000000" stroke="none" 
	d="
M1010.213989,15.183941 
	C1012.217285,14.965678 1014.455505,15.081161 1016.879028,15.565117 
	C1014.855042,15.860442 1012.605225,16.433144 1010.213989,15.183941 
z"/>
<path fill="#FDFCF9" opacity="1.000000" stroke="none" 
	d="
M526.294006,21.968288 
	C527.364990,20.074614 529.440063,21.415951 531.607178,20.920486 
	C530.592163,22.829573 528.500305,21.689947 526.294006,21.968288 
z"/>
<path fill="#FDFDF9" opacity="1.000000" stroke="none" 
	d="
M163.295319,107.969116 
	C164.365219,106.072334 166.440704,107.416458 168.607452,106.921112 
	C167.592239,108.827957 165.501389,107.691284 163.295319,107.969116 
z"/>
<path fill="#FDFDF9" opacity="1.000000" stroke="none" 
	d="
M1422.209595,107.183205 
	C1423.899414,106.977898 1425.819336,107.103523 1427.931396,107.592239 
	C1426.225098,107.857483 1424.276733,108.402840 1422.209595,107.183205 
z"/>
<path fill="#FEFDF9" opacity="1.000000" stroke="none" 
	d="
M1428.207642,108.182495 
	C1429.889404,107.968338 1431.799072,108.084442 1433.886230,108.563881 
	C1432.180786,108.883881 1430.257080,109.391304 1428.207642,108.182495 
z"/>
<path fill="#FDFDF9" opacity="1.000000" stroke="none" 
	d="
M145.281708,110.968750 
	C146.359512,109.083344 148.410660,110.396423 150.565598,110.089432 
	C149.396637,111.642517 147.456406,110.757866 145.281708,110.968750 
z"/>
<path fill="#FDFDF9" opacity="1.000000" stroke="none" 
	d="
M1441.309204,110.431320 
	C1442.933350,110.186707 1444.837402,110.208549 1446.932861,110.592621 
	C1445.279175,110.869164 1443.434204,110.783470 1441.309204,110.431320 
z"/>
<path fill="#FEFCF9" opacity="1.000000" stroke="none" 
	d="
M139.349152,111.953918 
	C140.414200,110.074196 142.464386,111.420883 144.608368,110.920502 
	C143.608673,112.820587 141.534897,111.697578 139.349152,111.953918 
z"/>
<path fill="#FEFCF9" opacity="1.000000" stroke="none" 
	d="
M132.336029,112.953606 
	C133.409134,111.084595 135.435211,112.400093 137.567902,112.089127 
	C136.414062,113.640518 134.489838,112.762199 132.336029,112.953606 
z"/>
<path fill="#FDFDF9" opacity="1.000000" stroke="none" 
	d="
M520.295410,22.969131 
	C521.365112,21.072685 523.440674,22.416258 525.607300,21.920427 
	C524.592712,23.828623 522.501404,22.690987 520.295410,22.969131 
z"/>
<path fill="#FEFCFA" opacity="1.000000" stroke="none" 
	d="
M125.335983,113.954048 
	C126.408211,112.084297 128.434311,113.399773 130.566483,113.088867 
	C129.413132,114.640266 127.489235,113.761948 125.335983,113.954048 
z"/>
<path fill="#FDFDF9" opacity="1.000000" stroke="none" 
	d="
M1050.209473,21.183575 
	C1051.899536,20.978037 1053.819336,21.103582 1055.931885,21.592010 
	C1054.225586,21.857508 1052.276978,22.402962 1050.209473,21.183575 
z"/>
<path fill="#FDFCF9" opacity="1.000000" stroke="none" 
	d="
M1044.209473,20.183538 
	C1045.899658,19.977743 1047.819580,20.103291 1049.932251,20.591709 
	C1048.225952,20.855742 1046.276978,21.404165 1044.209473,20.183538 
z"/>
<path fill="#FDFCF8" opacity="1.000000" stroke="none" 
	d="
M532.294556,20.968613 
	C533.365417,19.074022 535.440247,20.415730 537.607666,19.924290 
	C536.589111,21.825947 534.500488,20.690872 532.294556,20.968613 
z"/>
<path fill="#FDFDF9" opacity="1.000000" stroke="none" 
	d="
M1038.308838,19.431377 
	C1039.933228,19.186632 1041.837402,19.208473 1043.932617,19.592695 
	C1042.278687,19.869371 1040.433594,19.783665 1038.308838,19.431377 
z"/>
<path fill="#FDFCF7" opacity="1.000000" stroke="none" 
	d="
M538.284363,19.969929 
	C539.360596,18.085011 541.411438,19.394701 543.565430,19.088108 
	C542.398376,20.645956 540.457886,19.757597 538.284363,19.969929 
z"/>
<path fill="#FDFCF8" opacity="1.000000" stroke="none" 
	d="
M1031.207642,18.181103 
	C1032.889038,17.968676 1034.797729,18.086966 1036.884521,18.568232 
	C1035.180298,18.878805 1033.255493,19.394415 1031.207642,18.181103 
z"/>
<path fill="#FDFCF8" opacity="1.000000" stroke="none" 
	d="
M545.350220,18.954792 
	C546.414307,17.076654 548.464294,18.418291 550.608032,17.919037 
	C549.609985,19.822039 547.535461,18.696840 545.350220,18.954792 
z"/>
<path fill="#FDFDF9" opacity="1.000000" stroke="none" 
	d="
M1025.307617,17.431427 
	C1026.932495,17.186409 1028.836914,17.208326 1030.932861,17.592567 
	C1029.278564,17.869383 1027.432861,17.783873 1025.307617,17.431427 
z"/>
<path fill="#FDFCF9" opacity="1.000000" stroke="none" 
	d="
M551.281555,17.968489 
	C552.359009,16.083759 554.409973,17.395298 556.564575,17.088676 
	C555.396301,18.644455 553.455872,17.756748 551.281555,17.968489 
z"/>
<path fill="#FDFCF8" opacity="1.000000" stroke="none" 
	d="
M1067.209717,24.187721 
	C1068.899292,23.981112 1070.819458,24.104834 1072.932495,24.591492 
	C1071.226562,24.858658 1069.278809,25.401699 1067.209717,24.187721 
z"/>
<path fill="#FEFCF9" opacity="1.000000" stroke="none" 
	d="
M1018.305420,16.430851 
	C1019.921631,16.177799 1021.815918,16.190754 1023.886841,16.566183 
	C1022.236755,16.851393 1020.410095,16.774126 1018.305420,16.430851 
z"/>
<path fill="#FEFDF9" opacity="1.000000" stroke="none" 
	d="
M558.348877,16.953045 
	C559.415161,15.075435 561.464294,16.420637 563.608459,15.920849 
	C562.608154,17.818771 560.534912,16.698511 558.348877,16.953045 
z"/>
<path fill="#FEFDFA" opacity="1.000000" stroke="none" 
	d="
M1411.198730,105.177460 
	C1412.564209,104.973869 1414.146729,105.095436 1415.896729,105.572853 
	C1414.503418,105.908989 1412.901978,106.334984 1411.198730,105.177460 
z"/>
<path fill="#FDFCF9" opacity="1.000000" stroke="none" 
	d="
M169.263611,106.968208 
	C169.981491,105.122902 171.759338,106.367516 173.580383,106.089119 
	C172.734039,107.503632 171.115356,106.831314 169.263611,106.968208 
z"/>
<path fill="#FDFCF9" opacity="1.000000" stroke="none" 
	d="
M1417.295410,106.428368 
	C1418.605469,106.191994 1420.183594,106.219070 1421.943359,106.600235 
	C1420.604614,106.866821 1419.083984,106.779320 1417.295410,106.428368 
z"/>
<path fill="#FDFCF8" opacity="1.000000" stroke="none" 
	d="
M158.335373,108.954590 
	C159.031250,107.093384 160.817978,108.406761 162.620667,107.918686 
	C161.953033,109.605042 160.214737,108.804390 158.335373,108.954590 
z"/>
<path fill="#FDFCF8" opacity="1.000000" stroke="none" 
	d="
M152.319214,109.954437 
	C153.026733,108.103561 154.786926,109.384567 156.580139,109.088432 
	C155.749084,110.495392 154.148926,109.837471 152.319214,109.954437 
z"/>
<path fill="#FDFCF8" opacity="1.000000" stroke="none" 
	d="
M1435.293579,109.426697 
	C1436.595703,109.183395 1438.162354,109.202843 1439.895752,109.576447 
	C1438.561035,109.850212 1437.059692,109.769821 1435.293579,109.426697 
z"/>
<path fill="#FDFDF9" opacity="1.000000" stroke="none" 
	d="
M1056.198486,22.176136 
	C1057.563843,21.973993 1059.145508,22.097525 1060.895264,22.576591 
	C1059.502930,22.905771 1057.900269,23.337269 1056.198486,22.176136 
z"/>
<path fill="#FDFCF9" opacity="1.000000" stroke="none" 
	d="
M1406.295410,104.428345 
	C1407.605347,104.192055 1409.183350,104.219223 1410.943237,104.600342 
	C1409.604614,104.866798 1408.084106,104.779305 1406.295410,104.428345 
z"/>
<path fill="#FDFCF9" opacity="1.000000" stroke="none" 
	d="
M1084.295410,27.428265 
	C1085.605347,27.192127 1087.183228,27.219332 1088.942627,27.600677 
	C1087.604004,27.867081 1086.083740,27.779343 1084.295410,27.428265 
z"/>
<path fill="#FDFCF8" opacity="1.000000" stroke="none" 
	d="
M1113.274414,33.422356 
	C1114.583374,33.179962 1116.140625,33.195042 1117.767334,33.594742 
	C1116.398804,33.879517 1114.960571,33.779671 1113.274414,33.422356 
z"/>
<path fill="#FDFCF9" opacity="1.000000" stroke="none" 
	d="
M464.274536,33.968147 
	C464.959869,32.123379 466.738129,33.379246 468.540100,32.965271 
	C467.845703,34.639198 466.128357,33.774837 464.274536,33.968147 
z"/>
<path fill="#FDFCF9" opacity="1.000000" stroke="none" 
	d="
M1099.185791,30.166672 
	C1100.555054,29.968996 1102.124878,30.088509 1103.765625,30.593685 
	C1102.346313,30.876080 1100.791626,31.349947 1099.185791,30.166672 
z"/>
<path fill="#FDFCF9" opacity="1.000000" stroke="none" 
	d="
M478.334534,30.954279 
	C479.030945,29.090860 480.818115,30.409010 482.620850,29.919514 
	C481.952209,31.603600 480.214325,30.804981 478.334534,30.954279 
z"/>
<path fill="#FDFDF9" opacity="1.000000" stroke="none" 
	d="
M1094.201172,29.178635 
	C1095.573853,28.982927 1097.166016,29.113712 1098.940918,29.599930 
	C1097.548218,29.885675 1095.922241,30.345304 1094.201172,29.178635 
z"/>
<path fill="#FEFCF9" opacity="1.000000" stroke="none" 
	d="
M483.279816,29.968590 
	C483.985168,28.111061 485.789703,29.391264 487.619202,28.919743 
	C486.936462,30.617128 485.179138,29.796818 483.279816,29.968590 
z"/>
<path fill="#FDFCF9" opacity="1.000000" stroke="none" 
	d="
M1089.201172,28.178612 
	C1090.573975,27.982613 1092.166260,28.113541 1093.941650,28.599506 
	C1092.549194,28.884052 1090.922607,29.346296 1089.201172,28.178612 
z"/>
<path fill="#FEFDF9" opacity="1.000000" stroke="none" 
	d="
M488.279449,28.968439 
	C488.985229,27.112032 490.789490,28.390570 492.619354,27.920235 
	C491.935883,29.617123 490.178802,28.796579 488.279449,28.968439 
z"/>
<path fill="#FDFDF9" opacity="1.000000" stroke="none" 
	d="
M459.334167,34.955383 
	C460.029846,33.088993 461.817841,34.408772 463.621094,33.920448 
	C462.951782,35.603519 461.214203,34.806221 459.334167,34.955383 
z"/>
<path fill="#FDFCF9" opacity="1.000000" stroke="none" 
	d="
M493.263611,27.968216 
	C493.981445,26.122847 495.759308,27.367567 497.580322,27.089123 
	C496.734039,28.503592 495.115356,27.831314 493.263611,27.968216 
z"/>
<path fill="#FDFCF7" opacity="1.000000" stroke="none" 
	d="
M1078.198853,26.174982 
	C1079.564087,25.972954 1081.145386,26.096796 1082.895020,26.575960 
	C1081.502808,26.906792 1079.900269,27.337702 1078.198853,26.174982 
z"/>
<path fill="#FDFCF8" opacity="1.000000" stroke="none" 
	d="
M499.335083,26.955130 
	C500.030701,25.093233 501.817780,26.406675 503.620667,25.918968 
	C502.953278,27.606880 501.214539,26.804825 499.335083,26.955130 
z"/>
<path fill="#FEFDF9" opacity="1.000000" stroke="none" 
	d="
M1073.200684,25.178213 
	C1074.574097,24.982176 1076.166382,25.113306 1077.941406,25.599815 
	C1076.548340,25.884460 1074.921753,26.346130 1073.200684,25.178213 
z"/>
<path fill="#FEFDF9" opacity="1.000000" stroke="none" 
	d="
M504.280212,25.968758 
	C504.985443,24.111712 506.789673,25.390192 508.619263,24.919712 
	C507.936523,26.616505 506.179352,25.796537 504.280212,25.968758 
z"/>
<path fill="#FDFCF8" opacity="1.000000" stroke="none" 
	d="
M509.262817,24.968067 
	C509.980713,23.122074 511.758728,24.367847 513.579651,24.088995 
	C512.733337,25.503563 511.114746,24.831985 509.262817,24.968067 
z"/>
<path fill="#FDFCF8" opacity="1.000000" stroke="none" 
	d="
M1062.297729,23.427595 
	C1063.606934,23.192142 1065.183228,23.220188 1066.940918,23.602236 
	C1065.603027,23.867857 1064.083984,23.779474 1062.297729,23.427595 
z"/>
<path fill="#FDFCF8" opacity="1.000000" stroke="none" 
	d="
M515.335327,23.954624 
	C516.031189,22.093433 517.817932,23.406704 519.620728,22.918785 
	C518.952881,24.604879 517.214661,23.804449 515.335327,23.954624 
z"/>
<path fill="#FEFCF9" opacity="1.000000" stroke="none" 
	d="
M1127.276855,36.421684 
	C1128.585815,36.179691 1130.141846,36.195507 1131.767090,36.596020 
	C1130.398804,36.880310 1128.961548,36.779900 1127.276855,36.421684 
z"/>
<path fill="#FEFDF9" opacity="1.000000" stroke="none" 
	d="
M446.330383,37.953644 
	C447.006714,36.101036 448.767670,37.396770 450.542969,36.965748 
	C449.862488,38.626938 448.164825,37.785362 446.330383,37.953644 
z"/>
<path fill="#FDFCF9" opacity="1.000000" stroke="none" 
	d="
M1136.276611,38.421757 
	C1137.585571,38.179829 1139.141968,38.195480 1140.767578,38.595886 
	C1139.399170,38.880207 1137.961670,38.779770 1136.276611,38.421757 
z"/>
<path fill="#FDFCF8" opacity="1.000000" stroke="none" 
	d="
M437.329895,39.953602 
	C438.006409,38.100891 439.767456,39.397255 441.542725,38.965561 
	C440.862549,40.627842 439.164398,39.785309 437.329895,39.953602 
z"/>
<path fill="#FDFCF9" opacity="1.000000" stroke="none" 
	d="
M1366.276611,96.421753 
	C1367.585449,96.179871 1369.141724,96.195526 1370.767334,96.595863 
	C1369.399048,96.880135 1367.961548,96.779716 1366.276611,96.421753 
z"/>
<path fill="#FEFCF9" opacity="1.000000" stroke="none" 
	d="
M1375.296631,98.427872 
	C1376.606567,98.191589 1378.183838,98.219185 1379.942505,98.600922 
	C1378.603882,98.867294 1377.083862,98.779518 1375.296631,98.427872 
z"/>
<path fill="#FDFCF9" opacity="1.000000" stroke="none" 
	d="
M204.329742,99.953705 
	C205.005951,98.101555 206.767273,99.397896 208.542130,98.965286 
	C207.862015,100.627342 206.164017,99.784798 204.329742,99.953705 
z"/>
<path fill="#FDFCF9" opacity="1.000000" stroke="none" 
	d="
M1380.201172,99.178116 
	C1381.574097,98.982376 1383.166260,99.113380 1384.941406,99.599640 
	C1383.548950,99.884193 1381.922485,100.345924 1380.201172,99.178116 
z"/>
<path fill="#FDFCF9" opacity="1.000000" stroke="none" 
	d="
M1385.201416,100.177933 
	C1386.573975,99.982368 1388.166260,100.113365 1389.941406,100.599640 
	C1388.548950,100.884064 1386.922607,101.345337 1385.201416,100.177933 
z"/>
<path fill="#FDFCF9" opacity="1.000000" stroke="none" 
	d="
M1390.201416,101.177917 
	C1391.573975,100.982353 1393.166260,101.113365 1394.941406,101.599640 
	C1393.548950,101.884026 1391.922607,102.345406 1390.201416,101.177917 
z"/>
<path fill="#FEFCFA" opacity="1.000000" stroke="none" 
	d="
M190.274994,102.968582 
	C190.960587,101.123528 192.738541,102.377800 194.541107,101.965378 
	C193.846313,103.637550 192.129623,102.777657 190.274994,102.968582 
z"/>
<path fill="#FDFCF9" opacity="1.000000" stroke="none" 
	d="
M1395.201416,102.177910 
	C1396.573975,101.982315 1398.166382,102.113297 1399.941650,102.599518 
	C1398.549194,102.884125 1396.922729,103.345345 1395.201416,102.177910 
z"/>
<path fill="#FEFDF9" opacity="1.000000" stroke="none" 
	d="
M185.279755,103.968521 
	C185.985275,102.112228 187.789383,103.389572 189.619263,102.919861 
	C188.936218,104.617363 187.179031,103.796547 185.279755,103.968521 
z"/>
<path fill="#FEFCFA" opacity="1.000000" stroke="none" 
	d="
M1400.198975,103.177094 
	C1401.563843,102.974197 1403.146118,103.096100 1404.895996,103.573753 
	C1403.503418,103.908104 1401.901978,104.334206 1400.198975,103.177094 
z"/>
<path fill="#FEFDFA" opacity="1.000000" stroke="none" 
	d="
M180.333710,104.953934 
	C181.030731,103.088783 182.818344,104.411270 184.621231,103.921066 
	C183.951157,105.603958 182.213547,104.804909 180.333710,104.953934 
z"/>
</svg>