<svg version="1.1" id="Layer_1" xmlns="http://www.w3.org/2000/svg" xmlns:xlink="http://www.w3.org/1999/xlink" x="0px" y="0px"
	 width="100%" viewBox="0 0 1600 198" enable-background="new 0 0 1600 198" xml:space="preserve">
<path fill="#A27B5C" opacity="1.000000" stroke="none" 
	d="
M1601.000000,122.000000 
	C1601.000000,147.660400 1601.000000,173.320801 1601.000000,198.954712 
	C1067.666626,198.954712 534.333313,198.954712 1.000000,198.954712 
	C1.000000,173.582214 1.000000,148.254990 1.399578,122.463882 
	C2.864539,121.988434 3.929923,121.976883 5.463962,121.984573 
	C16.723085,122.001175 27.513788,122.032616 38.303753,121.957512 
	C39.841610,121.946808 41.375870,121.419670 43.382824,121.078568 
	C54.894955,120.355148 65.965469,119.993416 76.970535,118.944809 
	C95.276833,117.200500 113.590248,115.378944 131.809631,112.916382 
	C150.938766,110.330841 170.136566,107.773270 188.989319,103.733330 
	C218.660004,97.375214 248.149658,90.111267 277.561401,82.623703 
	C304.748596,75.702438 331.689606,67.820030 358.818207,60.660877 
	C386.901611,53.249733 415.005402,45.888077 443.242584,39.096378 
	C463.393677,34.249557 483.743683,30.198799 504.074036,26.138981 
	C517.540466,23.449839 531.101135,21.193205 544.672119,19.079798 
	C555.198853,17.440466 565.811890,16.361019 576.377075,14.961229 
	C585.960388,13.691531 595.507202,12.108785 605.113159,11.057578 
	C616.562439,9.804649 628.053589,8.921936 639.533936,7.967407 
	C655.946106,6.602814 672.352112,5.116096 688.785522,4.070701 
	C699.865417,3.365867 710.989990,3.380899 722.088013,2.915511 
	C723.083679,2.873759 724.030518,1.666158 725.000000,0.999998 
	C726.066711,1.000000 727.133362,1.000000 728.826172,1.369870 
	C742.295349,1.822376 755.138367,1.920081 767.981506,1.945039 
	C768.653748,1.946345 769.327148,1.329215 770.000000,1.000000 
	C783.357422,1.000000 796.714844,1.000000 810.755005,1.372539 
	C824.282898,1.828342 837.127991,1.926845 849.973145,1.951952 
	C850.648193,1.953271 851.324341,1.331633 852.000000,1.000005 
	C852.750000,1.000000 853.500000,1.000000 854.506714,1.429147 
	C855.775330,2.237978 856.776917,2.916886 857.800476,2.951677 
	C869.733582,3.357278 881.671753,3.610363 893.604553,4.022749 
	C899.878601,4.239573 906.160034,4.516362 912.411011,5.070828 
	C926.001892,6.276339 939.571899,7.714582 953.157349,8.984378 
	C961.188354,9.735012 969.266296,10.075902 977.263245,11.078627 
	C991.401489,12.851398 1005.507812,14.896668 1019.602295,16.996809 
	C1037.084839,19.601786 1054.620605,21.954233 1071.989990,25.186262 
	C1094.782104,29.427341 1117.561157,33.884636 1140.116455,39.218426 
	C1172.032227,46.765724 1203.765625,55.093773 1235.527222,63.281094 
	C1270.914062,72.402901 1306.157959,82.093605 1341.632568,90.854355 
	C1363.333252,96.213493 1385.309814,100.494400 1407.240845,104.866676 
	C1421.028564,107.615456 1434.922485,109.908875 1448.840820,111.902847 
	C1461.024414,113.648270 1473.305786,114.718292 1485.549438,116.035728 
	C1498.125122,117.388885 1510.685791,118.975128 1523.293701,119.909370 
	C1534.195435,120.717178 1545.154297,120.753723 1556.328125,121.475967 
	C1569.713745,121.868958 1582.859253,121.917168 1596.420654,121.979263 
	C1598.224487,121.995430 1599.612183,121.997711 1601.000000,122.000000 
z"/>
<path fill="#000000" opacity="1.000000" stroke="none" 
	d="
M1601.000000,121.531342 
	C1599.612183,121.997711 1598.224487,121.995430 1596.243408,121.577934 
	C1582.462646,121.152214 1569.275269,121.141708 1556.087891,121.131195 
	C1545.154297,120.753723 1534.195435,120.717178 1523.293701,119.909370 
	C1510.685791,118.975128 1498.125122,117.388885 1485.549438,116.035728 
	C1473.305786,114.718292 1461.024414,113.648270 1448.840820,111.902847 
	C1434.922485,109.908875 1421.028564,107.615456 1407.240845,104.866676 
	C1385.309814,100.494400 1363.333252,96.213493 1341.632568,90.854355 
	C1306.157959,82.093605 1270.914062,72.402901 1235.527222,63.281094 
	C1203.765625,55.093773 1172.032227,46.765724 1140.116455,39.218426 
	C1117.561157,33.884636 1094.782104,29.427341 1071.989990,25.186262 
	C1054.620605,21.954233 1037.084839,19.601786 1019.602295,16.996809 
	C1005.507812,14.896668 991.401489,12.851398 977.263245,11.078627 
	C969.266296,10.075902 961.188354,9.735012 953.157349,8.984378 
	C939.571899,7.714582 926.001892,6.276339 912.411011,5.070828 
	C906.160034,4.516362 899.878601,4.239573 893.604553,4.022749 
	C881.671753,3.610363 869.733582,3.357278 857.800476,2.951677 
	C856.776917,2.916886 855.775330,2.237978 854.881714,1.429147 
	C1103.666626,1.000000 1352.333374,1.000000 1601.000000,1.000000 
	C1601.000000,41.103069 1601.000000,81.082878 1601.000000,121.531342 
z"/>
<path fill="#000000" opacity="1.000000" stroke="none" 
	d="
M4.995306,121.965332 
	C3.929923,121.976883 2.864539,121.988434 1.399578,122.000000 
	C1.000000,81.687553 1.000000,41.375107 1.000000,1.000000 
	C242.020889,1.000000 483.041779,1.000000 724.531372,0.999998 
	C724.030518,1.666158 723.083679,2.873759 722.088013,2.915511 
	C710.989990,3.380899 699.865417,3.365867 688.785522,4.070701 
	C672.352112,5.116096 655.946106,6.602814 639.533936,7.967407 
	C628.053589,8.921936 616.562439,9.804649 605.113159,11.057578 
	C595.507202,12.108785 585.960388,13.691531 576.377075,14.961229 
	C565.811890,16.361019 555.198853,17.440466 544.672119,19.079798 
	C531.101135,21.193205 517.540466,23.449839 504.074036,26.138981 
	C483.743683,30.198799 463.393677,34.249557 443.242584,39.096378 
	C415.005402,45.888077 386.901611,53.249733 358.818207,60.660877 
	C331.689606,67.820030 304.748596,75.702438 277.561401,82.623703 
	C248.149658,90.111267 218.660004,97.375214 188.989319,103.733330 
	C170.136566,107.773270 150.938766,110.330841 131.809631,112.916382 
	C113.590248,115.378944 95.276833,117.200500 76.970535,118.944809 
	C65.965469,119.993416 54.894955,120.355148 42.922150,121.018539 
	C31.125896,121.005783 20.261091,120.963486 9.397079,121.037514 
	C7.927781,121.047531 6.462465,121.641663 4.995306,121.965332 
z"/>
<path fill="#FDFCF8" opacity="1.000000" stroke="none" 
	d="
M769.531372,1.000000 
	C769.327148,1.329215 768.653748,1.946345 767.981506,1.945039 
	C755.138367,1.920081 742.295349,1.822376 729.226135,1.369870 
	C742.354248,1.000000 755.708435,1.000000 769.531372,1.000000 
z"/>
<path fill="#FDFCF8" opacity="1.000000" stroke="none" 
	d="
M851.531372,1.000005 
	C851.324341,1.331633 850.648193,1.953271 849.973145,1.951952 
	C837.127991,1.926845 824.282898,1.828342 811.218872,1.372539 
	C824.354248,1.000000 837.708435,1.000000 851.531372,1.000005 
z"/>
<path fill="#FEFDFA" opacity="1.000000" stroke="none" 
	d="
M1556.328125,121.475967 
	C1569.275269,121.141708 1582.462646,121.152214 1595.827393,121.564056 
	C1582.859253,121.917168 1569.713745,121.868958 1556.328125,121.475967 
z"/>
<path fill="#FEFDFA" opacity="1.000000" stroke="none" 
	d="
M5.463961,121.984566 
	C6.462465,121.641663 7.927781,121.047531 9.397079,121.037514 
	C20.261091,120.963486 31.125896,121.005783 42.451126,121.071533 
	C41.375870,121.419670 39.841610,121.946808 38.303753,121.957512 
	C27.513788,122.032616 16.723085,122.001175 5.463961,121.984566 
z"/>
</svg>