<svg version="1.1" id="Layer_1" xmlns="http://www.w3.org/2000/svg" xmlns:xlink="http://www.w3.org/1999/xlink" x="0px" y="0px"
	 width="100%" viewBox="0 0 1600 198" enable-background="new 0 0 1600 198" xml:space="preserve">
<path fill="#FFB8E0" opacity="1.000000" stroke="none" 
	d="
M704.000000,1.000002 
	C712.022644,1.000000 720.045227,1.000000 728.823120,1.305194 
	C742.497986,1.721287 755.417480,1.844013 768.337280,1.902553 
	C768.890137,1.905058 769.445679,1.314352 770.000000,0.999995 
	C783.355957,1.000000 796.711914,1.000000 810.817383,1.309286 
	C824.488159,1.727303 837.409424,1.847922 850.330933,1.904170 
	C850.885925,1.906587 851.443604,1.314916 852.000000,0.999997 
	C852.750000,1.000000 853.500000,1.000000 854.321899,1.382485 
	C856.077209,2.176647 857.744934,2.853664 859.446716,2.954110 
	C866.860962,3.391740 874.289368,3.586039 881.704712,4.007877 
	C898.469116,4.961562 915.231506,5.956405 931.989502,7.016338 
	C941.168762,7.596920 950.372375,8.038809 959.502991,9.084559 
	C974.712158,10.826489 989.872681,12.994593 1005.051453,14.999965 
	C1017.639404,16.663054 1030.290283,17.966198 1042.795166,20.115757 
	C1062.090210,23.432543 1081.343628,27.053156 1100.506104,31.063488 
	C1123.722046,35.922138 1146.927246,40.906139 1169.950806,46.590607 
	C1198.557129,53.653439 1226.950562,61.573349 1255.476807,68.965530 
	C1282.292847,75.914513 1309.128662,82.792305 1336.020996,89.437996 
	C1350.113647,92.920639 1364.322754,95.947189 1378.522217,98.978577 
	C1391.643555,101.779800 1404.793457,104.467026 1417.984741,106.914330 
	C1428.354614,108.838196 1438.775635,110.554001 1449.230225,111.936798 
	C1461.368042,113.542236 1473.563965,114.711655 1485.740356,116.017876 
	C1498.417480,117.377815 1511.080078,118.955956 1523.788574,119.913689 
	C1534.505859,120.721359 1545.279785,120.776955 1556.340576,121.436371 
	C1569.794189,121.784988 1582.935913,121.862694 1596.486938,121.967514 
	C1598.264282,121.996414 1599.632080,121.998207 1601.000000,122.000000 
	C1601.000000,147.660355 1601.000000,173.320694 1601.000000,198.956375 
	C1067.666626,198.956375 534.333313,198.956375 1.000000,198.956375 
	C1.000000,173.585861 1.000000,148.258972 1.392439,122.466042 
	C2.830757,121.980156 3.876636,121.960304 5.394679,121.963600 
	C15.990620,121.990288 26.114801,122.042824 36.237862,121.959435 
	C38.484066,121.940933 40.726318,121.442963 43.398933,121.089752 
	C45.228672,120.676407 46.615177,120.135406 48.033325,120.033150 
	C62.618488,118.981461 77.216888,118.104660 91.794922,116.965622 
	C102.395004,116.137413 113.030914,115.408493 123.542000,113.884552 
	C139.258255,111.605942 154.924377,108.907539 170.528442,105.948051 
	C189.413513,102.366280 208.357086,98.919640 227.014236,94.348724 
	C256.871399,87.033829 286.518951,78.861847 316.245239,71.014610 
	C347.211243,62.840103 378.120056,54.443657 409.142609,46.490414 
	C426.784241,41.967632 444.575775,38.013836 462.351654,34.035454 
	C476.377045,30.896471 490.447113,27.931671 504.561462,25.223679 
	C516.656494,22.903107 528.823547,20.935064 540.994080,19.037792 
	C551.117065,17.459715 561.288513,16.189611 571.443726,14.822094 
	C583.541443,13.193002 595.630493,11.485785 607.750793,10.043569 
	C615.391846,9.134347 623.084534,8.663434 630.751709,7.969607 
	C645.263428,6.656407 659.760315,5.150021 674.288757,4.063811 
	C683.346497,3.386617 692.453308,3.382965 701.529785,2.915400 
	C702.383789,2.871407 703.178040,1.666121 704.000000,1.000002 
z"/>
<path fill="#000000" opacity="1.000000" stroke="none" 
	d="
M1556.028687,121.165443 
	C1545.279785,120.776955 1534.505859,120.721359 1523.788574,119.913689 
	C1511.080078,118.955956 1498.417480,117.377815 1485.740356,116.017876 
	C1473.563965,114.711655 1461.368042,113.542236 1449.230225,111.936798 
	C1438.775635,110.554001 1428.354614,108.838196 1417.984741,106.914330 
	C1404.793457,104.467026 1391.643555,101.779800 1378.522217,98.978577 
	C1364.322754,95.947189 1350.113647,92.920639 1336.020996,89.437996 
	C1309.128662,82.792305 1282.292847,75.914513 1255.476807,68.965530 
	C1226.950562,61.573349 1198.557129,53.653439 1169.950806,46.590607 
	C1146.927246,40.906139 1123.722046,35.922138 1100.506104,31.063488 
	C1081.343628,27.053156 1062.090210,23.432543 1042.795166,20.115757 
	C1030.290283,17.966198 1017.639404,16.663054 1005.051453,14.999965 
	C989.872681,12.994593 974.712158,10.826489 959.502991,9.084559 
	C950.372375,8.038809 941.168762,7.596920 931.989502,7.016338 
	C915.231506,5.956405 898.469116,4.961562 881.704712,4.007877 
	C874.289368,3.586039 866.860962,3.391740 859.446716,2.954110 
	C857.744934,2.853664 856.077209,2.176647 854.696899,1.382485 
	C1103.666626,1.000000 1352.333374,1.000000 1601.000000,1.000000 
	C1601.000000,41.103069 1601.000000,81.082878 1601.000000,121.531342 
	C1599.632080,121.998207 1598.264282,121.996414 1596.278931,121.580276 
	C1582.450562,121.165764 1569.239624,121.165604 1556.028687,121.165443 
z"/>
<path fill="#000000" opacity="1.000000" stroke="none" 
	d="
M703.531372,1.000002 
	C703.178040,1.666121 702.383789,2.871407 701.529785,2.915400 
	C692.453308,3.382965 683.346497,3.386617 674.288757,4.063811 
	C659.760315,5.150021 645.263428,6.656407 630.751709,7.969607 
	C623.084534,8.663434 615.391846,9.134347 607.750793,10.043569 
	C595.630493,11.485785 583.541443,13.193002 571.443726,14.822094 
	C561.288513,16.189611 551.117065,17.459715 540.994080,19.037792 
	C528.823547,20.935064 516.656494,22.903107 504.561462,25.223679 
	C490.447113,27.931671 476.377045,30.896471 462.351654,34.035454 
	C444.575775,38.013836 426.784241,41.967632 409.142609,46.490414 
	C378.120056,54.443657 347.211243,62.840103 316.245239,71.014610 
	C286.518951,78.861847 256.871399,87.033829 227.014236,94.348724 
	C208.357086,98.919640 189.413513,102.366280 170.528442,105.948051 
	C154.924377,108.907539 139.258255,111.605942 123.542000,113.884552 
	C113.030914,115.408493 102.395004,116.137413 91.794922,116.965622 
	C77.216888,118.104660 62.618488,118.981461 48.033325,120.033150 
	C46.615177,120.135406 45.228672,120.676407 42.937183,121.013885 
	C31.162066,121.007454 20.277000,120.964783 9.392691,121.036453 
	C7.900712,121.046280 6.412481,121.625076 4.922515,121.940453 
	C3.876636,121.960304 2.830757,121.980156 1.392439,122.000000 
	C1.000000,81.688087 1.000000,41.376167 1.000000,1.000000 
	C235.020889,1.000000 469.041779,1.000000 703.531372,1.000002 
z"/>
<path fill="#FDFCF8" opacity="1.000000" stroke="none" 
	d="
M769.531372,0.999995 
	C769.445679,1.314352 768.890137,1.905058 768.337280,1.902553 
	C755.417480,1.844013 742.497986,1.721287 729.289185,1.305194 
	C742.354248,1.000000 755.708435,1.000000 769.531372,0.999995 
z"/>
<path fill="#FDFCF8" opacity="1.000000" stroke="none" 
	d="
M851.531372,0.999997 
	C851.443604,1.314916 850.885925,1.906587 850.330933,1.904170 
	C837.409424,1.847922 824.488159,1.727303 811.283447,1.309286 
	C824.354248,1.000000 837.708435,1.000000 851.531372,0.999997 
z"/>
<path fill="#FEFDFA" opacity="1.000000" stroke="none" 
	d="
M1556.340576,121.436371 
	C1569.239624,121.165604 1582.450562,121.165764 1595.869507,121.553162 
	C1582.935913,121.862694 1569.794189,121.784988 1556.340576,121.436371 
z"/>
<path fill="#FEFDFA" opacity="1.000000" stroke="none" 
	d="
M5.394678,121.963600 
	C6.412481,121.625076 7.900712,121.046280 9.392691,121.036453 
	C20.277000,120.964783 31.162066,121.007454 42.508640,121.089890 
	C40.726318,121.442963 38.484066,121.940933 36.237862,121.959435 
	C26.114801,122.042824 15.990620,121.990288 5.394678,121.963600 
z"/>
</svg>